<?xml version="1.0" encoding="UTF-8" standalone="no"?>
<!DOCTYPE svg PUBLIC "-//W3C//DTD SVG 1.1//EN" "http://www.w3.org/Graphics/SVG/1.1/DTD/svg11.dtd">
<svg width="100%" height="100%" viewBox="0 0 1280 308" version="1.1" xmlns="http://www.w3.org/2000/svg" xmlns:xlink="http://www.w3.org/1999/xlink" xml:space="preserve" xmlns:serif="http://www.serif.com/" style="fill-rule:evenodd;clip-rule:evenodd;stroke-linejoin:round;stroke-miterlimit:2;">
    <g transform="matrix(1,0,0,1,-320.466,-386.228)">
        <g transform="matrix(1,0,0,1,-217.055,163.788)">
            <path d="M692.622,526.888L765.748,526.888L671.342,406.975L758.01,318.781L686.045,318.781L597.83,402.333L597.83,239.851L537.521,239.851L537.521,526.888L597.83,526.888L597.83,473.894L626.848,445.27L692.622,526.888Z" style="fill:url(#_Linear1);fill-rule:nonzero;"/>
            <path d="M900.039,315.685C873.328,315.685 850.102,324.19 833.843,340.425L833.843,239.851L773.534,239.851L773.534,526.888L833.843,526.888L833.843,423.971C833.843,385.667 854.747,367.869 883.78,367.869C910.491,367.869 925.976,383.346 925.976,417.007L925.976,526.888L986.285,526.888L986.285,407.721C986.285,344.29 949.171,315.685 900.039,315.685Z" style="fill:url(#_Linear2);fill-rule:nonzero;"/>
            <path d="M1170.89,318.781L1170.89,421.698C1170.89,460.002 1150.76,477.8 1122.89,477.8C1096.17,477.8 1080.69,462.323 1080.69,427.502L1080.69,318.781L1020.38,318.781L1020.38,436.4C1020.38,500.606 1057.11,529.984 1109.34,529.984C1134.89,529.984 1158.11,520.32 1173.98,502.152L1173.98,526.888L1231.2,526.888L1231.2,318.781L1170.89,318.781Z" style="fill:url(#_Linear3);fill-rule:nonzero;"/>
            <path d="M1394.51,315.685C1366.25,315.685 1341.86,325.349 1325.61,343.13L1325.61,318.781L1268,318.781L1268,526.888L1328.31,526.888L1328.31,423.995C1328.31,385.667 1349.21,367.869 1378.25,367.869C1404.96,367.869 1420.44,383.346 1420.44,417.007L1420.44,526.888L1480.75,526.888L1480.75,407.721C1480.75,344.29 1443.64,315.685 1394.51,315.685Z" style="fill:url(#_Linear4);fill-rule:nonzero;"/>
            <path d="M1546.16,289.714C1568.59,289.714 1583.67,275.022 1583.67,254.917C1583.67,236.359 1568.59,222.441 1546.16,222.441C1523.74,222.441 1508.66,237.132 1508.66,256.077C1508.66,275.022 1523.74,289.714 1546.16,289.714ZM1516.01,526.888L1576.32,526.888L1576.32,318.781L1516.01,318.781L1516.01,526.888Z" style="fill:url(#_Linear5);fill-rule:nonzero;"/>
            <path d="M1717.93,481.669C1690.84,481.669 1671.5,471.218 1662.6,450.704L1816.59,420.9C1816.2,354.335 1767.84,315.685 1709.03,315.685C1644.81,315.685 1597.65,360.519 1597.65,422.835C1597.65,484.761 1644.42,529.984 1716.38,529.984C1753.91,529.984 1782.93,518.388 1802.27,496.357L1770.16,461.541C1755.84,475.089 1739.98,481.669 1717.93,481.669ZM1709.03,361.292C1734.18,361.292 1752.36,375.614 1758.16,396.902L1656.8,416.642C1657.96,381.42 1678.85,361.292 1709.03,361.292Z" style="fill:url(#_Linear6);fill-rule:nonzero;"/>
        </g>
    </g>
    <defs>
        <linearGradient id="_Linear1" x1="0" y1="0" x2="1" y2="0" gradientUnits="userSpaceOnUse" gradientTransform="matrix(1407.13,0,0,314.507,533.265,373.117)"><stop offset="0" style="stop-color:rgb(138,0,255);stop-opacity:1"/><stop offset="1" style="stop-color:rgb(87,0,255);stop-opacity:1"/></linearGradient>
        <linearGradient id="_Linear2" x1="0" y1="0" x2="1" y2="0" gradientUnits="userSpaceOnUse" gradientTransform="matrix(1407.13,0,0,314.507,533.265,373.117)"><stop offset="0" style="stop-color:rgb(138,0,255);stop-opacity:1"/><stop offset="1" style="stop-color:rgb(87,0,255);stop-opacity:1"/></linearGradient>
        <linearGradient id="_Linear3" x1="0" y1="0" x2="1" y2="0" gradientUnits="userSpaceOnUse" gradientTransform="matrix(1407.13,0,0,314.507,533.265,373.117)"><stop offset="0" style="stop-color:rgb(138,0,255);stop-opacity:1"/><stop offset="1" style="stop-color:rgb(87,0,255);stop-opacity:1"/></linearGradient>
        <linearGradient id="_Linear4" x1="0" y1="0" x2="1" y2="0" gradientUnits="userSpaceOnUse" gradientTransform="matrix(1407.13,0,0,314.507,533.265,373.117)"><stop offset="0" style="stop-color:rgb(138,0,255);stop-opacity:1"/><stop offset="1" style="stop-color:rgb(87,0,255);stop-opacity:1"/></linearGradient>
        <linearGradient id="_Linear5" x1="0" y1="0" x2="1" y2="0" gradientUnits="userSpaceOnUse" gradientTransform="matrix(1407.13,0,0,314.507,533.265,373.117)"><stop offset="0" style="stop-color:rgb(138,0,255);stop-opacity:1"/><stop offset="1" style="stop-color:rgb(87,0,255);stop-opacity:1"/></linearGradient>
        <linearGradient id="_Linear6" x1="0" y1="0" x2="1" y2="0" gradientUnits="userSpaceOnUse" gradientTransform="matrix(1407.13,0,0,314.507,533.265,373.117)"><stop offset="0" style="stop-color:rgb(138,0,255);stop-opacity:1"/><stop offset="1" style="stop-color:rgb(87,0,255);stop-opacity:1"/></linearGradient>
    </defs>
</svg>
