<?xml version="1.0" encoding="UTF-8" standalone="no"?>
<!DOCTYPE svg PUBLIC "-//W3C//DTD SVG 1.1//EN" "http://www.w3.org/Graphics/SVG/1.1/DTD/svg11.dtd">
<svg width="100%" height="100%" viewBox="0 0 428 428" version="1.1" xmlns="http://www.w3.org/2000/svg" xmlns:xlink="http://www.w3.org/1999/xlink" xml:space="preserve" xmlns:serif="http://www.serif.com/" style="fill-rule:evenodd;clip-rule:evenodd;stroke-linejoin:round;stroke-miterlimit:2;">
    <g transform="matrix(1,0,0,1,-87.2173,-84.8597)">
        <g transform="matrix(0.906491,0,0,0.906491,-8.15436,28.1896)">
            <path d="M576.747,100.239C576.747,79.419 559.844,62.516 539.024,62.516L142.933,62.516C122.113,62.516 105.21,79.419 105.21,100.239L105.21,496.33C105.21,517.15 122.113,534.053 142.933,534.053L539.024,534.053C559.844,534.053 576.747,517.15 576.747,496.33L576.747,100.239Z" style="fill:url(#_Linear1);"/>
        </g>
        <g transform="matrix(442.91,0,0,442.91,154.818,459.607)">
            <path d="M0.473,-0L0.662,-0L0.418,-0.31L0.642,-0.538L0.456,-0.538L0.228,-0.322L0.228,-0.742L0.072,-0.742L0.072,-0L0.228,-0L0.228,-0.137L0.303,-0.211L0.473,-0Z" style="fill:url(#_Radial2);fill-rule:nonzero;"/>
        </g>
    </g>
    <defs>
        <linearGradient id="_Linear1" x1="0" y1="0" x2="1" y2="0" gradientUnits="userSpaceOnUse" gradientTransform="matrix(397.527,-396.126,396.126,397.527,89.2301,552.276)"><stop offset="0" style="stop-color:rgb(49,32,154);stop-opacity:1"/><stop offset="1" style="stop-color:rgb(68,32,160);stop-opacity:1"/></linearGradient>
        <radialGradient id="_Radial2" cx="0" cy="0" r="1" gradientUnits="userSpaceOnUse" gradientTransform="matrix(-0.326919,-0.712212,0.895736,-0.41116,0.0769581,0.0412554)"><stop offset="0" style="stop-color:rgb(69,191,214);stop-opacity:1"/><stop offset="0.29" style="stop-color:rgb(164,88,213);stop-opacity:1"/><stop offset="0.57" style="stop-color:rgb(255,140,224);stop-opacity:1"/><stop offset="0.79" style="stop-color:rgb(255,115,185);stop-opacity:1"/><stop offset="1" style="stop-color:rgb(248,159,129);stop-opacity:1"/></radialGradient>
    </defs>
</svg>
